<?xml version="1.0" encoding="UTF-8"?>
<svg xmlns="http://www.w3.org/2000/svg" xmlns:xlink="http://www.w3.org/1999/xlink" width="116px" height="35px" viewBox="0 0 115 35" version="1.1">
<g id="surface1">
<path style=" stroke:none;fill-rule:nonzero;fill:rgb(14.901961%,14.901961%,14.901961%);fill-opacity:1;" d="M 62.429688 17.585938 C 62.539062 17.585938 62.644531 17.585938 62.757812 17.585938 C 64.511719 17.621094 65.976562 18.175781 67.277344 19.378906 C 67.558594 19.675781 67.757812 19.988281 67.972656 20.335938 C 68.050781 20.375 68.132812 20.414062 68.214844 20.457031 C 68.242188 20.390625 68.273438 20.324219 68.300781 20.257812 C 69.0625 18.871094 70.441406 18.210938 71.890625 17.746094 C 73.601562 17.289062 75.675781 17.574219 77.214844 18.40625 C 78.835938 19.464844 79.652344 20.816406 80.097656 22.675781 C 80.207031 23.328125 80.234375 23.953125 80.230469 24.609375 C 80.230469 24.714844 80.230469 24.816406 80.230469 24.921875 C 80.230469 25.261719 80.230469 25.601562 80.230469 25.941406 C 80.230469 26.179688 80.230469 26.414062 80.230469 26.652344 C 80.230469 27.269531 80.226562 27.890625 80.226562 28.511719 C 80.226562 29.144531 80.226562 29.777344 80.222656 30.410156 C 80.222656 31.652344 80.222656 32.894531 80.21875 34.136719 C 78.84375 34.136719 77.46875 34.136719 76.054688 34.136719 C 76.050781 33.460938 76.046875 32.785156 76.039062 32.085938 C 76.035156 31.65625 76.03125 31.222656 76.027344 30.792969 C 76.023438 30.109375 76.015625 29.425781 76.011719 28.742188 C 76.007812 28.191406 76.003906 27.640625 75.996094 27.089844 C 75.996094 26.878906 75.992188 26.671875 75.992188 26.460938 C 76.003906 24.222656 76.003906 24.222656 75.042969 22.257812 C 74.214844 21.488281 73.203125 21.386719 72.121094 21.410156 C 71.210938 21.472656 70.566406 21.730469 69.9375 22.398438 C 68.882812 23.75 69.050781 25.488281 69.035156 27.121094 C 69.03125 27.324219 69.03125 27.527344 69.027344 27.730469 C 69.019531 28.261719 69.015625 28.789062 69.007812 29.320312 C 69 29.960938 68.992188 30.597656 68.984375 31.238281 C 68.972656 32.203125 68.960938 33.171875 68.949219 34.136719 C 67.578125 34.136719 66.203125 34.136719 64.785156 34.136719 C 64.785156 33.839844 64.785156 33.539062 64.785156 33.230469 C 64.78125 32.238281 64.773438 31.246094 64.765625 30.253906 C 64.757812 29.652344 64.753906 29.050781 64.753906 28.453125 C 64.75 27.871094 64.746094 27.289062 64.742188 26.707031 C 64.738281 26.488281 64.738281 26.265625 64.738281 26.046875 C 64.773438 24.105469 64.773438 24.105469 63.945312 22.40625 C 63.148438 21.628906 62.398438 21.425781 61.304688 21.390625 C 60.296875 21.410156 59.695312 21.65625 58.871094 22.207031 C 58.085938 23.03125 57.910156 24.023438 57.902344 25.128906 C 57.902344 25.226562 57.902344 25.320312 57.898438 25.421875 C 57.894531 25.742188 57.894531 26.066406 57.890625 26.386719 C 57.886719 26.609375 57.886719 26.832031 57.882812 27.054688 C 57.875 27.644531 57.871094 28.230469 57.863281 28.816406 C 57.855469 29.414062 57.851562 30.015625 57.84375 30.613281 C 57.832031 31.789062 57.816406 32.960938 57.804688 34.136719 C 56.433594 34.136719 55.058594 34.136719 53.640625 34.136719 C 53.640625 28.769531 53.640625 23.402344 53.640625 17.871094 C 55.015625 17.871094 56.390625 17.871094 57.804688 17.871094 C 57.867188 18.601562 57.867188 18.601562 57.929688 19.347656 C 58.164062 19.152344 58.164062 19.152344 58.402344 18.957031 C 59.640625 17.992188 60.875 17.574219 62.429688 17.585938 Z M 62.429688 17.585938 "/>
<path style=" stroke:none;fill-rule:nonzero;fill:rgb(14.901961%,14.901961%,14.901961%);fill-opacity:1;" d="M 93.925781 18.53125 C 94.441406 18.882812 94.867188 19.257812 95.28125 19.71875 C 95.324219 19.109375 95.363281 18.5 95.40625 17.871094 C 96.820312 17.871094 98.234375 17.871094 99.691406 17.871094 C 99.691406 23.238281 99.691406 28.605469 99.691406 34.136719 C 98.277344 34.136719 96.863281 34.136719 95.40625 34.136719 C 95.363281 33.488281 95.324219 32.835938 95.28125 32.164062 C 95.171875 32.289062 95.058594 32.414062 94.945312 32.542969 C 93.660156 33.832031 92.003906 34.355469 90.230469 34.40625 C 88.234375 34.371094 86.539062 33.652344 85.089844 32.277344 C 83.714844 30.808594 82.839844 28.773438 82.789062 26.742188 C 82.785156 26.625 82.78125 26.503906 82.777344 26.382812 C 82.722656 23.851562 83.328125 21.5 85.070312 19.621094 C 87.339844 17.296875 91.171875 16.863281 93.925781 18.53125 Z M 88.179688 22.675781 C 87.214844 23.839844 86.964844 25.132812 87.078125 26.621094 C 87.210938 27.925781 87.863281 29.039062 88.871094 29.867188 C 89.785156 30.515625 90.734375 30.789062 91.851562 30.636719 C 93.085938 30.371094 93.992188 29.816406 94.730469 28.78125 C 95.511719 27.460938 95.605469 25.953125 95.324219 24.472656 C 94.953125 23.199219 94.28125 22.367188 93.140625 21.714844 C 91.367188 20.871094 89.5 21.234375 88.179688 22.675781 Z M 88.179688 22.675781 "/>
<path style=" stroke:none;fill-rule:nonzero;fill:rgb(14.901961%,14.901961%,14.901961%);fill-opacity:1;" d="M 34.535156 12.445312 C 35.910156 12.445312 37.285156 12.445312 38.699219 12.445312 C 38.742188 14.765625 38.78125 17.082031 38.824219 19.472656 C 39.1875 19.144531 39.550781 18.820312 39.925781 18.484375 C 40.289062 18.261719 40.289062 18.261719 40.597656 18.132812 C 40.703125 18.085938 40.804688 18.039062 40.910156 17.992188 C 42.816406 17.34375 44.933594 17.394531 46.75 18.277344 C 47.875 18.90625 48.578125 19.679688 49.15625 20.820312 C 49.199219 20.902344 49.238281 20.980469 49.28125 21.066406 C 49.746094 22.042969 49.882812 23 49.875 24.078125 C 49.875 24.1875 49.875 24.296875 49.875 24.410156 C 49.875 24.769531 49.871094 25.125 49.871094 25.484375 C 49.867188 25.734375 49.867188 25.984375 49.867188 26.234375 C 49.867188 26.886719 49.863281 27.542969 49.863281 28.199219 C 49.859375 28.867188 49.859375 29.535156 49.859375 30.203125 C 49.855469 31.515625 49.851562 32.828125 49.84375 34.136719 C 48.472656 34.136719 47.097656 34.136719 45.679688 34.136719 C 45.679688 33.839844 45.679688 33.539062 45.679688 33.230469 C 45.675781 32.238281 45.667969 31.246094 45.660156 30.253906 C 45.652344 29.652344 45.648438 29.050781 45.648438 28.453125 C 45.648438 27.871094 45.640625 27.289062 45.636719 26.707031 C 45.632812 26.488281 45.632812 26.265625 45.632812 26.046875 C 45.632812 24.691406 45.625 23.398438 44.792969 22.253906 C 43.917969 21.429688 42.976562 21.273438 41.808594 21.289062 C 40.75 21.371094 40.101562 21.792969 39.398438 22.578125 C 38.679688 23.773438 38.765625 25.109375 38.761719 26.457031 C 38.757812 26.679688 38.757812 26.902344 38.753906 27.125 C 38.75 27.707031 38.746094 28.285156 38.742188 28.867188 C 38.738281 29.460938 38.730469 30.054688 38.726562 30.648438 C 38.714844 31.8125 38.707031 32.972656 38.699219 34.136719 C 37.328125 34.136719 35.953125 34.136719 34.535156 34.136719 C 34.535156 26.980469 34.535156 19.820312 34.535156 12.445312 Z M 34.535156 12.445312 "/>
<path style=" stroke:none;fill-rule:nonzero;fill:rgb(14.901961%,14.901961%,14.901961%);fill-opacity:1;" d="M 15.308594 17.871094 C 16.683594 17.871094 18.058594 17.871094 19.472656 17.871094 C 19.472656 18.3125 19.472656 18.3125 19.476562 18.765625 C 19.480469 19.746094 19.488281 20.722656 19.496094 21.703125 C 19.5 22.296875 19.503906 22.890625 19.507812 23.484375 C 19.507812 24.058594 19.511719 24.632812 19.519531 25.207031 C 19.519531 25.425781 19.519531 25.640625 19.519531 25.859375 C 19.523438 27.222656 19.589844 28.355469 20.292969 29.5625 C 21.167969 30.371094 22.078125 30.613281 23.242188 30.597656 C 24.128906 30.523438 24.859375 30.265625 25.472656 29.601562 C 26.175781 28.691406 26.347656 27.777344 26.355469 26.640625 C 26.359375 26.546875 26.359375 26.453125 26.359375 26.355469 C 26.363281 26.042969 26.367188 25.726562 26.371094 25.414062 C 26.371094 25.199219 26.375 24.980469 26.378906 24.761719 C 26.382812 24.191406 26.390625 23.621094 26.394531 23.050781 C 26.402344 22.46875 26.410156 21.882812 26.417969 21.300781 C 26.429688 20.15625 26.441406 19.011719 26.453125 17.871094 C 27.828125 17.871094 29.203125 17.871094 30.617188 17.871094 C 30.617188 23.238281 30.617188 28.605469 30.617188 34.136719 C 29.242188 34.136719 27.871094 34.136719 26.453125 34.136719 C 26.414062 33.566406 26.371094 33 26.332031 32.410156 C 26.199219 32.539062 26.070312 32.667969 25.933594 32.796875 C 24.734375 33.851562 23.335938 34.308594 21.769531 34.300781 C 21.667969 34.296875 21.566406 34.296875 21.460938 34.296875 C 19.761719 34.261719 18.257812 33.71875 17.003906 32.539062 C 15.773438 31.175781 15.285156 29.554688 15.296875 27.746094 C 15.292969 27.640625 15.292969 27.53125 15.292969 27.421875 C 15.296875 27.070312 15.296875 26.71875 15.296875 26.367188 C 15.296875 26.121094 15.296875 25.875 15.296875 25.632812 C 15.296875 24.988281 15.300781 24.347656 15.300781 23.703125 C 15.300781 23.046875 15.300781 22.390625 15.304688 21.734375 C 15.304688 20.445312 15.304688 19.15625 15.308594 17.871094 Z M 15.308594 17.871094 "/>
<path style=" stroke:none;fill-rule:nonzero;fill:rgb(14.901961%,14.901961%,14.901961%);fill-opacity:1;" d="M 0.613281 17.871094 C 4.492188 17.871094 8.371094 17.871094 12.371094 17.871094 C 12.371094 21.609375 12.371094 21.609375 11.363281 22.800781 C 11.292969 22.875 11.21875 22.945312 11.144531 23.019531 C 10.644531 23.539062 10.230469 24.097656 9.8125 24.6875 C 9.128906 25.632812 8.425781 26.566406 7.71875 27.492188 C 6.976562 28.472656 6.246094 29.457031 5.511719 30.441406 C 7.773438 30.480469 10.039062 30.519531 12.371094 30.5625 C 12.371094 31.742188 12.371094 32.921875 12.371094 34.136719 C 8.449219 34.136719 4.527344 34.136719 0.488281 34.136719 C 0.488281 30.1875 0.488281 30.1875 1.714844 28.890625 C 2.207031 28.351562 2.625 27.78125 3.046875 27.191406 C 3.664062 26.34375 4.292969 25.503906 4.929688 24.671875 C 5.765625 23.574219 6.585938 22.46875 7.347656 21.320312 C 5.125 21.320312 2.902344 21.320312 0.613281 21.320312 C 0.613281 20.183594 0.613281 19.042969 0.613281 17.871094 Z M 0.613281 17.871094 "/>
<path style=" stroke:none;fill-rule:nonzero;fill:rgb(94.117647%,42.745098%,25.882354%);fill-opacity:1;" d="M 104.34375 0.984375 C 105.757812 0.984375 107.175781 0.984375 108.632812 0.984375 C 108.632812 3.019531 108.632812 5.054688 108.632812 7.148438 C 110.613281 7.148438 112.59375 7.148438 114.632812 7.148438 C 114.632812 8.488281 114.632812 9.832031 114.632812 11.214844 C 112.652344 11.214844 110.671875 11.214844 108.632812 11.214844 C 108.632812 13.25 108.632812 15.28125 108.632812 17.375 C 107.21875 17.375 105.800781 17.375 104.34375 17.375 C 104.34375 15.34375 104.34375 13.308594 104.34375 11.214844 C 102.40625 11.214844 100.464844 11.214844 98.464844 11.214844 C 98.464844 9.871094 98.464844 8.53125 98.464844 7.148438 C 100.40625 7.148438 102.347656 7.148438 104.34375 7.148438 C 104.34375 5.113281 104.34375 3.082031 104.34375 0.984375 Z M 104.34375 0.984375 "/>
<path style=" stroke:none;fill-rule:nonzero;fill:rgb(14.901961%,14.901961%,14.901961%);fill-opacity:1;" d="M 26.59375 12.15625 C 27.050781 12.390625 27.367188 12.714844 27.597656 13.179688 C 27.808594 13.835938 27.792969 14.519531 27.488281 15.144531 C 27.070312 15.679688 26.699219 15.964844 26.035156 16.066406 C 25.292969 16.101562 24.832031 15.988281 24.25 15.527344 C 23.789062 14.933594 23.6875 14.476562 23.71875 13.722656 C 23.800781 13.136719 24.007812 12.800781 24.441406 12.410156 C 25.082031 11.960938 25.84375 11.929688 26.59375 12.15625 Z M 26.59375 12.15625 "/>
<path style=" stroke:none;fill-rule:nonzero;fill:rgb(14.901961%,14.901961%,14.901961%);fill-opacity:1;" d="M 21.484375 12.277344 C 21.953125 12.714844 22.230469 13.09375 22.40625 13.71875 C 22.414062 14.371094 22.304688 14.980469 21.871094 15.484375 C 21.285156 15.992188 20.777344 16.066406 20.03125 16.054688 C 19.550781 16.003906 19.214844 15.863281 18.859375 15.527344 C 18.472656 15.003906 18.285156 14.457031 18.324219 13.804688 C 18.449219 13.132812 18.710938 12.695312 19.234375 12.261719 C 19.957031 11.910156 20.773438 11.9375 21.484375 12.277344 Z M 21.484375 12.277344 "/>
</g>
</svg>
